<svg id="Capa_1" enable-background="new 0 0 512 512" height="512" viewBox="0 0 512 512" width="512" xmlns="http://www.w3.org/2000/svg">
    <g>
        <path d="m474.638 188.238-213.157-105.282c-2.748-1.357-5.908-.922-8.174.845-.246.091-.489.196-.729.315l-213.173 105.29c-3.826 1.89-5.396 6.523-3.506 10.35 1.347 2.727 4.086 4.307 6.934 4.307 1.149 0 2.316-.257 3.416-.8l211.955-104.689 209.591 103.52c1.1.543 2.267.8 3.416.8 2.848 0 5.587-1.581 6.934-4.307 1.889-3.826.319-8.459-3.507-10.349z" fill="#cbcbcb" />
        <circle cx="258.208" cy="89.631" fill="#dd636e" r="22.377" />
        <path d="m258.208 93.427c-9.043 0-16.827-5.367-20.356-13.087-1.294 2.831-2.021 5.975-2.021 9.29 0 12.358 10.019 22.377 22.377 22.377s22.377-10.019 22.377-22.377c0-3.316-.727-6.46-2.021-9.29-3.529 7.72-11.313 13.087-20.356 13.087z" fill="#da4a54" />
        <path d="m491.299 444.746h-470.598c-11.433 0-20.701-9.268-20.701-20.701v-216.363c0-11.433 9.268-20.701 20.701-20.701h470.598c11.433 0 20.701 9.268 20.701 20.701v216.363c0 11.433-9.268 20.701-20.701 20.701z" fill="#aa593d" />
        <path d="m491.299 426.166h-470.598c-11.433 0-20.701-9.269-20.701-20.701v18.581c0 11.433 9.268 20.701 20.701 20.701h470.598c11.433 0 20.701-9.268 20.701-20.701v-18.581c0 11.432-9.268 20.701-20.701 20.701z" fill="#7a402b" />
        <path d="m31.034 217.942h449.933v195.844h-449.933z" fill="#eaeaea" />
        <path d="m31.034 395.205h449.933v18.581h-449.933z" fill="#cbcbcb" />
        <g>
            <g fill="#7b7179">
                <path d="m102.104 268.716c-16.078 0-29.159 13.081-29.159 29.159v35.978c0 16.078 13.081 29.159 29.159 29.159 13.925 0 25.96-9.915 28.614-23.576.816-4.198-1.926-8.261-6.123-9.077-4.197-.814-8.261 1.925-9.076 6.123-1.243 6.401-6.885 11.046-13.414 11.046-7.54 0-13.675-6.135-13.675-13.675v-35.978c0-7.54 6.135-13.675 13.675-13.675 6.529 0 12.171 4.645 13.414 11.046.816 4.197 4.877 6.939 9.076 6.123 4.197-.815 6.939-4.879 6.123-9.077-2.654-13.66-14.688-23.576-28.614-23.576z" />
                <path d="m150.418 268.774c-4.276 0-7.742 3.466-7.742 7.742v78.697c0 4.276 3.466 7.742 7.742 7.742h36.776c4.276 0 7.742-3.466 7.742-7.742s-3.466-7.742-7.742-7.742h-29.034v-70.955c0-4.276-3.467-7.742-7.742-7.742z" />
                <path d="m195.422 297.875v35.978c0 16.078 13.081 29.159 29.159 29.159s29.159-13.081 29.159-29.159v-35.978c0-16.078-13.081-29.159-29.159-29.159-16.079 0-29.159 13.081-29.159 29.159zm42.834 0v35.978c0 7.54-6.135 13.675-13.675 13.675-7.54 0-13.675-6.135-13.675-13.675v-35.978c0-7.54 6.135-13.675 13.675-13.675s13.675 6.135 13.675 13.675z" />
                <path d="m292.084 284.2c2.361 0 9.547 0 12.809 10.304 1.29 4.077 5.641 6.335 9.718 5.045 4.076-1.29 6.335-5.641 5.044-9.717-4.248-13.419-14.296-21.116-27.571-21.116-13.216 0-24.665 9.847-26.633 22.905-1.68 11.147 3.835 25.312 24.352 31.641 9.593 2.959 14.551 8.257 13.605 14.537-.721 4.782-5.153 9.729-11.323 9.729-11.728 0-13.473-11.929-13.705-14.345-.367-4.24-4.1-7.385-8.34-7.046-4.261.346-7.436 4.082-7.09 8.343.801 9.869 7.921 28.532 29.134 28.532 13.216 0 24.665-9.847 26.634-22.905 1.679-11.147-3.836-25.312-24.352-31.641-9.594-2.959-14.552-8.258-13.606-14.537.722-4.782 5.154-9.729 11.324-9.729z" />
                <path d="m368.553 284.235c4.276 0 7.742-3.466 7.742-7.742s-3.466-7.742-7.742-7.742h-31.611c-4.276 0-7.742 3.466-7.742 7.742v78.696c0 .008.001.015.001.022 0 .008-.001.015-.001.022 0 4.276 3.466 7.742 7.742 7.742h31.611c4.276 0 7.742-3.466 7.742-7.742s-3.466-7.742-7.742-7.742h-23.869v-23.887h23.869c4.276 0 7.742-3.466 7.742-7.742s-3.466-7.742-7.742-7.742h-23.869v-23.887h23.869z" />
                <path d="m439.054 327.553v-23.379c0-19.52-15.881-35.401-35.401-35.401h-10.43c-4.276 0-7.742 3.466-7.742 7.742v78.697c0 4.276 3.466 7.742 7.742 7.742h10.43c19.52 0 35.401-15.881 35.401-35.401zm-15.484 0c0 10.982-8.934 19.917-19.917 19.917h-2.688v-63.213h2.688c10.983 0 19.917 8.934 19.917 19.917z" />
            </g>
        </g>
    </g>
</svg>