<?xml version="1.0" encoding="iso-8859-1"?>
<!-- Generator: Adobe Illustrator 19.0.0, SVG Export Plug-In . SVG Version: 6.00 Build 0)  -->
<svg version="1.1" id="Capa_1" xmlns="http://www.w3.org/2000/svg" xmlns:xlink="http://www.w3.org/1999/xlink" x="0px" y="0px"
	 viewBox="0 0 512 512" style="enable-background:new 0 0 512 512;" xml:space="preserve">
<path style="fill:#DADDE1;" d="M269.555,97.513l148.525,85.988h29.939l-170.948-98.97c-3.583-2.075-8.173-0.853-10.249,2.732
	C264.747,90.849,265.971,95.438,269.555,97.513z"/>
<path style="fill:#E6E9ED;" d="M93.918,183.501l148.568-86.013c3.584-2.075,4.808-6.663,2.733-10.248
	c-2.075-3.585-6.664-4.809-10.249-2.733L63.98,183.501H93.918z"/>
<path style="fill:#ED5565;" d="M503.93,191.571c-5.19-5.19-12.09-8.061-19.43-8.07h-457c-7.34,0.01-14.24,2.88-19.43,8.07
	c-5.19,5.189-8.06,12.09-8.07,19.43v220c0.01,7.34,2.88,14.24,8.07,19.43s12.09,8.061,19.43,8.07h63h18.41h38.5H175h309.5
	c7.34-0.01,14.24-2.88,19.43-8.07c5.189-5.189,8.06-12.09,8.07-19.43v-220C511.99,203.661,509.119,196.761,503.93,191.571z"/>
<path style="fill:#DA4453;" d="M503.93,191.571c-5.19-5.19-12.09-8.061-19.43-8.07h-30.003c7.34,0.01,14.239,2.88,19.43,8.07
	c5.19,5.189,8.06,12.09,8.07,19.43v220c-0.011,7.34-2.88,14.24-8.07,19.43s-12.09,8.061-19.43,8.07H484.5
	c7.34-0.01,14.24-2.88,19.43-8.07c5.189-5.189,8.06-12.09,8.07-19.43v-220C511.99,203.661,509.119,196.761,503.93,191.571z"/>
<path style="fill:#FFCE54;" d="M479.81,225.691c-1.4-1.391-3.33-2.19-5.31-2.19c-1.37-0.01-2.5-1.13-2.5-2.5
	c0-1.979-0.801-3.91-2.19-5.31c-1.4-1.391-3.33-2.19-5.31-2.19h-417c-1.98,0-3.91,0.8-5.3,2.19c-1.4,1.399-2.2,3.33-2.2,5.31
	c0,1.37-1.12,2.49-2.5,2.5c-1.98,0-3.91,0.8-5.3,2.19c-1.4,1.399-2.2,3.33-2.2,5.31v180c0,1.98,0.8,3.91,2.2,5.31
	c1.39,1.39,3.33,2.19,5.3,2.19c1.38,0.01,2.5,1.13,2.5,2.5c0,1.98,0.8,3.91,2.2,5.31c1.39,1.39,3.32,2.19,5.3,2.19h417
	c1.98,0,3.91-0.8,5.3-2.19c1.399-1.4,2.2-3.33,2.2-5.31c0-1.37,1.13-2.49,2.5-2.5c1.98,0,3.91-0.8,5.3-2.2
	c1.399-1.39,2.2-3.319,2.2-5.3v-180C482,229.021,481.199,227.091,479.81,225.691z"/>
<g>
	<path style="fill:#ED5565;" d="M125.997,263.5c-20.678,0-37.5,16.822-37.5,37.5v40c0,20.678,16.822,37.5,37.5,37.5
		s37.5-16.822,37.5-37.5v-40C163.497,280.322,146.674,263.5,125.997,263.5z M125.997,363.5c-12.407,0-22.5-10.094-22.5-22.5v-40
		c0-12.407,10.093-22.5,22.5-22.5s22.5,10.093,22.5,22.5v40C148.497,353.406,138.403,363.5,125.997,363.5z"/>
	<path style="fill:#ED5565;" d="M215.997,263.5h-30c-4.142,0-7.5,3.357-7.5,7.5v100c0,4.142,3.358,7.5,7.5,7.5s7.5-3.358,7.5-7.5
		v-32.5h22.5c20.678,0,37.5-16.822,37.5-37.5S236.674,263.5,215.997,263.5z M215.997,323.5h-22.5v-45h22.5
		c12.407,0,22.5,10.093,22.5,22.5C238.497,313.406,228.403,323.5,215.997,323.5z"/>
	<path style="fill:#ED5565;" d="M326,278.5c4.143,0,7.5-3.358,7.5-7.5c0-4.143-3.357-7.5-7.5-7.5h-50.002
		c-4.142,0-7.5,3.357-7.5,7.5v100c0,4.142,3.358,7.5,7.5,7.5H326c4.143,0,7.5-3.358,7.5-7.5c0-4.143-3.357-7.5-7.5-7.5h-42.502v-35
		H316c4.143,0,7.5-3.358,7.5-7.5c0-4.143-3.357-7.5-7.5-7.5h-32.502v-35H326z"/>
	<path style="fill:#ED5565;" d="M421.894,375.627c0.088-0.111,0.173-0.223,0.254-0.338c0.061-0.089,0.119-0.179,0.177-0.27
		c0.069-0.108,0.137-0.218,0.2-0.329c0.06-0.106,0.116-0.217,0.172-0.326c0.051-0.102,0.101-0.202,0.146-0.305
		c0.055-0.124,0.105-0.25,0.154-0.377c0.037-0.097,0.073-0.193,0.105-0.291c0.045-0.131,0.084-0.264,0.121-0.398
		c0.027-0.103,0.055-0.205,0.079-0.309c0.028-0.127,0.054-0.255,0.077-0.384c0.021-0.12,0.039-0.241,0.055-0.362
		c0.014-0.113,0.025-0.227,0.035-0.341c0.012-0.145,0.018-0.288,0.022-0.434c0.001-0.055,0.008-0.108,0.008-0.164V271
		c0-4.143-3.357-7.5-7.5-7.5c-4.142,0-7.5,3.357-7.5,7.5v72.922l-46.068-76.781c-0.029-0.049-0.064-0.093-0.094-0.141
		c-0.076-0.119-0.154-0.237-0.236-0.353c-0.069-0.097-0.14-0.19-0.212-0.282c-0.073-0.093-0.148-0.184-0.225-0.272
		c-0.089-0.103-0.18-0.203-0.273-0.301c-0.069-0.072-0.141-0.142-0.213-0.21c-0.105-0.102-0.213-0.2-0.323-0.294
		c-0.073-0.063-0.147-0.121-0.224-0.181c-0.113-0.089-0.227-0.176-0.344-0.257c-0.086-0.061-0.175-0.117-0.264-0.174
		c-0.11-0.069-0.221-0.139-0.334-0.202c-0.105-0.061-0.213-0.115-0.322-0.17c-0.102-0.051-0.205-0.103-0.309-0.148
		c-0.123-0.055-0.247-0.104-0.372-0.152c-0.099-0.038-0.196-0.075-0.296-0.108c-0.13-0.044-0.262-0.082-0.393-0.119
		c-0.105-0.028-0.209-0.056-0.315-0.08c-0.125-0.029-0.251-0.054-0.378-0.076c-0.123-0.022-0.245-0.04-0.368-0.056
		c-0.111-0.014-0.224-0.025-0.336-0.034c-0.146-0.012-0.291-0.019-0.438-0.022c-0.055-0.001-0.108-0.008-0.163-0.008
		c-0.044,0-0.086,0.006-0.131,0.006c-0.154,0.003-0.308,0.012-0.462,0.023c-0.098,0.008-0.194,0.016-0.292,0.027
		c-0.142,0.017-0.285,0.04-0.428,0.065c-0.106,0.018-0.213,0.037-0.318,0.061c-0.125,0.028-0.249,0.061-0.373,0.097
		c-0.12,0.033-0.239,0.066-0.357,0.105c-0.105,0.035-0.211,0.075-0.316,0.116c-0.131,0.05-0.262,0.102-0.389,0.159
		c-0.092,0.041-0.182,0.086-0.273,0.132c-0.135,0.067-0.269,0.138-0.398,0.213c-0.04,0.022-0.081,0.04-0.12,0.064
		c-0.049,0.029-0.093,0.064-0.141,0.095c-0.12,0.075-0.237,0.154-0.353,0.236c-0.097,0.068-0.19,0.139-0.282,0.211
		c-0.093,0.073-0.185,0.149-0.273,0.227c-0.103,0.089-0.202,0.179-0.299,0.271c-0.073,0.07-0.143,0.143-0.213,0.216
		c-0.101,0.104-0.198,0.211-0.291,0.32c-0.063,0.074-0.124,0.15-0.185,0.228c-0.086,0.111-0.172,0.224-0.252,0.339
		c-0.063,0.088-0.119,0.179-0.178,0.27c-0.068,0.108-0.137,0.217-0.199,0.328c-0.061,0.107-0.117,0.217-0.172,0.327
		c-0.051,0.101-0.102,0.201-0.147,0.305c-0.056,0.123-0.105,0.249-0.153,0.377c-0.037,0.096-0.074,0.192-0.107,0.29
		c-0.044,0.132-0.082,0.265-0.119,0.399c-0.029,0.102-0.057,0.205-0.08,0.309c-0.029,0.126-0.054,0.254-0.076,0.383
		c-0.022,0.121-0.04,0.241-0.056,0.362c-0.015,0.113-0.026,0.227-0.034,0.341c-0.012,0.145-0.02,0.289-0.022,0.434
		c-0.001,0.056-0.009,0.109-0.009,0.165v100c0,4.142,3.358,7.5,7.5,7.5c4.143,0,7.5-3.358,7.5-7.5v-72.923l46.069,76.781
		c0.022,0.036,0.049,0.066,0.071,0.103c0.131,0.21,0.271,0.413,0.422,0.609c0.04,0.051,0.076,0.105,0.117,0.156
		c0.18,0.22,0.371,0.429,0.573,0.627c0.069,0.068,0.144,0.131,0.216,0.196c0.146,0.132,0.295,0.258,0.449,0.378
		c0.084,0.065,0.166,0.128,0.252,0.189c0.188,0.133,0.381,0.256,0.579,0.371c0.047,0.027,0.091,0.059,0.139,0.084
		c0.255,0.141,0.52,0.265,0.791,0.375c0.053,0.022,0.107,0.038,0.159,0.059c0.221,0.084,0.447,0.157,0.677,0.221
		c0.075,0.02,0.151,0.04,0.228,0.058c0.215,0.053,0.434,0.094,0.656,0.127c0.076,0.011,0.152,0.025,0.229,0.034
		c0.274,0.032,0.553,0.052,0.834,0.054c0.016,0,0.031,0.003,0.047,0.003c0.028,0,0.057-0.006,0.086-0.006
		c0.27-0.003,0.534-0.022,0.796-0.053c0.096-0.012,0.19-0.028,0.286-0.044c0.216-0.034,0.429-0.076,0.639-0.129
		c0.085-0.022,0.17-0.041,0.255-0.065c0.601-0.173,1.17-0.418,1.699-0.727c0.03-0.018,0.061-0.029,0.091-0.047
		c0.049-0.029,0.092-0.063,0.141-0.094c0.119-0.076,0.238-0.154,0.353-0.237c0.096-0.068,0.19-0.139,0.281-0.21
		c0.094-0.074,0.184-0.149,0.273-0.228c0.103-0.088,0.202-0.178,0.299-0.272c0.072-0.07,0.143-0.143,0.213-0.216
		c0.1-0.104,0.197-0.21,0.291-0.319C421.773,375.781,421.834,375.704,421.894,375.627z"/>
</g>
<path style="fill:#656D78;" d="M255.998,108.498c-15.163,0-27.499-12.337-27.499-27.5c0-15.163,12.336-27.499,27.499-27.499
	c15.164,0,27.5,12.336,27.5,27.499C283.498,96.161,271.162,108.498,255.998,108.498z"/>

</svg>
