<?xml version="1.0" encoding="UTF-8" standalone="no"?>
<!-- Created with Inkscape (http://www.inkscape.org/) -->

<svg
   xmlns:dc="http://purl.org/dc/elements/1.1/"
   xmlns:cc="http://creativecommons.org/ns#"
   xmlns:rdf="http://www.w3.org/1999/02/22-rdf-syntax-ns#"
   xmlns:svg="http://www.w3.org/2000/svg"
   xmlns="http://www.w3.org/2000/svg"
   xmlns:sodipodi="http://sodipodi.sourceforge.net/DTD/sodipodi-0.dtd"
   xmlns:inkscape="http://www.inkscape.org/namespaces/inkscape"
   width="50.991234"
   height="57.824959"
   id="svg2"
   version="1.1"
   inkscape:version="0.48.5 r10040"
   sodipodi:docname="icon.svg">
  <defs
     id="defs4" />
  <sodipodi:namedview
     id="base"
     pagecolor="#ffffff"
     bordercolor="#666666"
     borderopacity="1.0"
     inkscape:pageopacity="0.0"
     inkscape:pageshadow="2"
     inkscape:zoom="0.22627417"
     inkscape:cx="-1058.6555"
     inkscape:cy="-409.19882"
     inkscape:document-units="px"
     inkscape:current-layer="layer1"
     showgrid="false"
     inkscape:window-width="1920"
     inkscape:window-height="1036"
     inkscape:window-x="0"
     inkscape:window-y="44"
     inkscape:window-maximized="0"
     fit-margin-top="0"
     fit-margin-left="0"
     fit-margin-right="0"
     fit-margin-bottom="0" />
  <metadata
     id="metadata7">
    <rdf:RDF>
      <cc:Work
         rdf:about="">
        <dc:format>image/svg+xml</dc:format>
        <dc:type
           rdf:resource="http://purl.org/dc/dcmitype/StillImage" />
        <dc:title></dc:title>
      </cc:Work>
    </rdf:RDF>
  </metadata>
  <g
     inkscape:label="Layer 1"
     inkscape:groupmode="layer"
     id="layer1"
     transform="translate(1470.4532,133.28711)">
    <path
       style="fill:#f9be00;fill-opacity:1;stroke:none"
       d="m -1430.1719,-101.5 c -3.1875,0.01 -6.3937,0.3921 -7.1563,0.875 -2.432,1.5403 -0.1811,24.09375 2.4063,24.09375 0.1627,0 1.005,-0.25995 1.875,-0.59375 1.0123,-0.3885 1.5937,-1.8285 1.5937,-4 0,-3.1222 0.2312,-3.40635 3.0626,-3.40625 2.0674,0 4.0358,-0.94215 6,-2.90625 3.7295,-3.729599 3.9093,-8.1844 0.4687,-11.625 -2.0463,-2.0463 -3.4183,-2.4503 -8.25,-2.4375 z m 0.5625,5.96875 c 3.7637,0 5.0912,1.85295 2.625,3.65625 -2.1195,1.5498 -4.4688,1.783 -4.4688,0.4375 2e-4,-0.505 -0.2599,-1.63 -0.5937,-2.5 -0.4717,-1.2292 0.069,-1.59385 2.4375,-1.59375 z"
       id="rect3129"
       inkscape:connector-curvature="0" />
    <path
       style="fill:#961922;fill-opacity:1;stroke:none"
       d="m -1430.4532,-133.28125 c -0.8009,-0.0267 -1.6405,0.0381 -2.4374,0.1875 -10.4022,1.9514 -12.0654,18.0182 -2.375,22.9375 4.6587,2.3651 9.637,1.46335 13.125,-2.40625 2.9659,-3.2906 3.0841,-4.6824 0.5,-6.3125 -1.1929,-0.7524 -2.3693,-0.35705 -4.6876,1.59375 -1.994,1.678 -3.7924,2.411 -5.125,2.0625 -4.7522,-1.2427 -5.2981,-8.7435 -0.8124,-11.25 2.5082,-1.4015 2.8592,-1.35115 5.0624,0.71875 2.8831,2.7083 4.3571,2.8027 5.6563,0.375 1.902,-3.5541 -3.2985,-7.71995 -8.9063,-7.90625 z m -28.9374,1.90625 c -5.7238,0.1643 -11.0626,5.13945 -11.0626,12.40625 0,10.6105 11.6876,15.9355 19.1876,8.75 1.7013,-1.63 2.7648,-3.59285 2.5937,-4.78125 -0.4152,-2.8841 -3.7683,-3.1686 -5.7813,-0.5 -2.0943,2.7768 -6.8065,2.95685 -8.7187,0.34375 -2.1193,-2.8962 -1.2245,-7.5712 1.7813,-9.25 2.3556,-1.3158 2.856,-1.2415 5.7187,0.875 2.6022,1.9239 3.4062,2.09455 4.6875,1.03125 2.1431,-1.7787 1.9324,-3.2963 -0.8125,-5.875 -2.2871,-2.1486 -4.9922,-3.0747 -7.5937,-3 z m 2.3124,31.84375 c -11.0676,0 -15.5511,14.98535 -6.5937,22.03125 3.726,2.9309 10.2753,2.67195 14.1563,-0.59375 3.3719,-2.8373 3.9076,-5.49655 1.5312,-7.46875 -1.2829,-1.0648 -2.0003,-0.8402 -4.3125,1.375 -1.5227,1.4589 -3.73,2.65625 -4.9063,2.65625 -2.4128,0 -5.25,-3.4376 -5.25,-6.375 2e-4,-4.588799 6.2567,-7.4056 9.0313,-4.0625 1.6435,1.9803 5.3502,1.47985 5.7813,-0.78125 0.586,-3.0759 -4.5605,-6.78135 -9.4376,-6.78125 z"
       id="rect3119"
       inkscape:connector-curvature="0" />
  </g>
</svg>
